<svg data-name="Group 234" xmlns="http://www.w3.org/2000/svg" width="32" height="32" viewBox="0 0 32 32">
    <defs>
        <clipPath id="abrt7r4h7a">
            <path data-name="Rectangle 210" style="fill:#414042" d="M0 0h32v32H0z"/>
        </clipPath>
    </defs>
    <g data-name="Group 233" style="clip-path:url(#abrt7r4h7a)">
        <path data-name="Path 62" d="M32 16A16 16 0 1 1 16 0a16 16 0 0 1 16 16" style="fill:#414042"/>
        <g data-name="Group 235">
            <path data-name="Path 63" d="M71.078 71.3c0-4.027-4.037-7.3-9-7.3s-9 3.277-9 7.3c0 3.61 3.2 6.634 7.527 7.206.293.063.692.193.793.444a1.849 1.849 0 0 1 .029.814l-.128.77c-.039.227-.181.89.78.485a29.059 29.059 0 0 0 7.07-5.219 6.5 6.5 0 0 0 1.929-4.5" transform="translate(-46.078 -56.575)" style="fill:#fff"/>
            <path data-name="Path 64" d="M201.822 131.857a.172.172 0 0 0 .172-.172v-.638a.172.172 0 0 0-.172-.172H200.1v-.663h1.718a.172.172 0 0 0 .172-.172v-.64a.172.172 0 0 0-.172-.172H200.1v-.663h1.718a.172.172 0 0 0 .172-.172v-.638a.172.172 0 0 0-.172-.172h-2.529a.172.172 0 0 0-.172.172v3.921a.172.172 0 0 0 .172.172h2.529z" transform="translate(-179.817 -114.802)" style="fill:#414042"/>
            <path data-name="Path 65" d="M90.817 131.857a.172.172 0 0 0 .172-.172v-.638a.172.172 0 0 0-.172-.172H89.1v-3.118a.172.172 0 0 0-.172-.172h-.638a.172.172 0 0 0-.172.172v3.925a.172.172 0 0 0 .172.172h2.529z" transform="translate(-78.165 -114.802)" style="fill:#414042"/>
            <path data-name="Path 66" d="M129.427 127.585h-.638a.172.172 0 0 0-.172.172v3.928a.172.172 0 0 0 .172.172h.638a.172.172 0 0 0 .172-.172v-3.928a.172.172 0 0 0-.172-.172" transform="translate(-115.252 -114.802)" style="fill:#414042"/>
            <path data-name="Path 67" d="M151.115 127.585h-.638a.172.172 0 0 0-.172.172v2.333l-1.8-2.427-.014-.018-.01-.011-.009-.008-.009-.006h-.005l-.01-.005H147.734a.172.172 0 0 0-.172.172v3.928a.172.172 0 0 0 .172.172h.638a.172.172 0 0 0 .172-.172v-2.332l1.8 2.43a.174.174 0 0 0 .044.043l.011.007h.033a.179.179 0 0 0 .045.006h.635a.172.172 0 0 0 .172-.172v-3.928a.172.172 0 0 0-.172-.172" transform="translate(-132.595 -114.802)" style="fill:#414042"/>
        </g>
    </g>
</svg>
