<svg
                xmlns="http://www.w3.org/2000/svg"
                data-name="call_black_24dp (1)"
                width="16"
                height="16"
                viewBox="0 0 16 16"
              >
                <path
                  data-name="Path 2005"
                  d="M0 0h16v16H0z"
                  style="fill: none"
                />
                <path
                  data-name="Path 2006"
                  d="m13.829 11.177-1.693-.193a1.327 1.327 0 0 0-1.093.38L9.815 12.59A10.03 10.03 0 0 1 5.422 8.2l1.233-1.237a1.327 1.327 0 0 0 .38-1.093l-.193-1.68a1.334 1.334 0 0 0-1.327-1.18H4.362a1.323 1.323 0 0 0-1.333 1.38 11.328 11.328 0 0 0 10.593 10.593A1.323 1.323 0 0 0 15 13.65V12.5a1.321 1.321 0 0 0-1.171-1.323z"
                  transform="translate(-1.009 -1.003)"
                  style="fill: #414042"
                />
              </svg>