<svg xmlns="http://www.w3.org/2000/svg" width="200" height="166" viewBox="0 0 200 166">
    <defs>
        <linearGradient id="7ieznehisb" x1="1.094" y1="1.138" x2=".28" y2=".432" gradientUnits="objectBoundingBox">
            <stop offset="0" stop-color="#fc6667"/>
            <stop offset="1" stop-color="#febabb"/>
        </linearGradient>
        <linearGradient id="da2yw4zqrc" x1=".935" y1="1.269" x2="-.093" y2=".796" gradientUnits="objectBoundingBox">
            <stop offset="0" stop-color="#ffe7e7"/>
            <stop offset="1" stop-color="#fbc9ca"/>
        </linearGradient>
        <clipPath id="loifqbzzga">
            <path data-name="Rectangle 18851" style="fill:#fff" d="M0 0h200v106H0z"/>
        </clipPath>
    </defs>
    <g data-name="Group 21247">
        <g data-name="Mask Group 26" transform="translate(0 60)" style="clip-path:url(#loifqbzzga)">
            <g data-name="Group 20332">
                <path data-name="Path 2215" d="m-19356-18120.637-23.631 14.98-143.369-17.371 22.676-14.371z" transform="translate(19556.507 18137.549)" style="fill:#ff8e8e"/>
                <path data-name="Path 2216" d="m-19474.83-18001.229.475-88.955-23.727 14.963.014 15.838-8.506 5.074.039 15.588-8.238 4.773v15.85l-8.143 4.863v12.006z" transform="translate(19674.738 18107.127)" style="fill:url(#7ieznehisb)"/>
                <path data-name="Path 2217" d="M-19466.262-18097.422v16.615l143.146 16.689v-15.891z" transform="translate(19499.767 18111.867)" style="fill:url(#da2yw4zqrc)"/>
                <path data-name="Path 2218" d="m-19466.01-18096.6-.252 15.791 143.146 16.689-.02-15.6z" transform="translate(19491.361 18132.559)" style="fill:url(#da2yw4zqrc)"/>
                <path data-name="Path 2219" d="m-19465.861-18096.689-.4 15.883 143.146 16.689v-15.891z" transform="translate(19483.171 18153.25)" style="fill:url(#da2yw4zqrc)"/>
                <path data-name="Path 2220" d="m-19465.918-18096.838-.344 16.031 143.146 16.689v-15.891z" transform="translate(19474.875 18173.941)" style="fill:url(#da2yw4zqrc)"/>
                <path data-name="Path 2221" d="m-19465.988-18096.918-.273 16.111 143.146 16.689v-15.891z" transform="translate(19466.578 18194.82)" style="fill:url(#da2yw4zqrc)"/>
                <path data-name="Path 2222" d="m-19314.932-18035.461-8.455 5.1-142.873-16.885 8.135-5.084z" transform="translate(19491.584 18083.211)" style="fill:#ff8e8e"/>
                <path data-name="Path 2223" d="m-19315.225-18035.447-8.221 4.82-142.816-16.662 7.848-4.857z" transform="translate(19483.494 18103.877)" style="fill:#ff8e8e"/>
                <path data-name="Path 2224" d="m-19314.934-18035.187-8.316 4.807-143.021-16.865 8.135-5.084z" transform="translate(19475 18124.313)" style="fill:#ff8e8e"/>
                <path data-name="Path 2225" d="m-19314.932-18035.461-8.455 5.1-142.873-16.885 8.135-5.084z" transform="translate(19466.691 18145.191)" style="fill:#ff8e8e"/>
            </g>
        </g>
        <g data-name="Group 20342">
            <path data-name="Path 2239" d="M-19172.66-17647.5c6.316 3.5 16.488 4.688 22.662-4.131 1.58.287 1.328 2.445.58 6.863s-5.342 5.541-5.342 5.541-6.7 2.924-11.174.857-7.681-8.446-6.726-9.13z" transform="translate(19259.83 17672.627)" style="fill:#ed2024"/>
            <g data-name="Group 20340">
                <g data-name="Group 20341">
                    <path data-name="Rectangle 18855" transform="rotate(14.98 -74.4 581.42)" style="fill:#ef7678" d="M0 0h13.453v4.097H0z"/>
                    <path data-name="Rectangle 18853" transform="rotate(14.98 -58.639 553.339)" style="fill:#ed2024" d="M0 0h13.453v8.968H0z"/>
                    <path data-name="Rectangle 18854" transform="rotate(14.98 -71.318 621.34)" style="fill:#f58486" d="M0 0h6.726v8.968H0z"/>
                </g>
                <path data-name="Union 1" d="M19720.373 17722.539a21.652 21.652 0 0 1-6.205 7 22.584 22.584 0 0 1-6.344 3.262 23.028 23.028 0 0 1-13 .408 22.5 22.5 0 0 1-8.045-3.893 21.725 21.725 0 0 1-5.66-6.383 20.987 20.987 0 0 1-2.148-16.316 21.417 21.417 0 0 1 3.121-6.605 22.064 22.064 0 0 1 4.994-5.084 22.676 22.676 0 0 1 6.35-3.256 22.981 22.981 0 0 1 12.994-.406 22.46 22.46 0 0 1 8.051 3.891 21.861 21.861 0 0 1 5.658 6.379 21.133 21.133 0 0 1 2.912 10.111l55.148 14.775-2.9 10.832zm-30.572-13.109a10.479 10.479 0 0 0 1.072 8.16 11.092 11.092 0 0 0 6.855 5.137 11.682 11.682 0 0 0 2.9.373h.01a11.173 11.173 0 0 0 10.82-8.051 10.5 10.5 0 0 0-1.076-8.162 11.081 11.081 0 0 0-6.85-5.131 11.566 11.566 0 0 0-2.914-.373 11.166 11.166 0 0 0-10.818 8.047z" transform="translate(-19602.199 -17690.521)" style="fill:#ffc6c7"/>
            </g>
        </g>
    </g>
</svg>
