<?xml version="1.0" encoding="UTF-8" standalone="no"?><!DOCTYPE svg PUBLIC "-//W3C//DTD SVG 1.1//EN" "http://www.w3.org/Graphics/SVG/1.1/DTD/svg11.dtd"><svg width="100%" height="100%" viewBox="0 0 4240 1433" version="1.1" xmlns="http://www.w3.org/2000/svg" xmlns:xlink="http://www.w3.org/1999/xlink" xml:space="preserve" xmlns:serif="http://www.serif.com/" style="fill-rule:evenodd;clip-rule:evenodd;stroke-linejoin:round;stroke-miterlimit:2;"><g><path d="M1684.31,859.932l105.836,0l-0,20.04l-82.056,0l-0,65.94l76.874,0l-0,19.839l-76.874,0l-0,74.208l82.458,0l0,19.839l-106.238,0l-0,-199.866Z" style="fill:#58595b;fill-rule:nonzero;"/><path d="M1851.01,982.703l58.075,-0l-28.325,-107.48l-29.75,107.48Zm62.62,19.017l-67.164,0l-16.553,58.075l-25.406,-0l60.557,-199.866l32.248,-0l60.759,199.866l-27.067,-0l-17.374,-58.075Z" style="fill:#58595b;fill-rule:nonzero;"/><path d="M2100.78,1006.47c0,8.821 -1.559,16.804 -4.645,23.982c-3.102,7.16 -7.53,13.298 -13.232,18.38c-5.718,5.114 -12.678,9.072 -20.878,11.89c-8.201,2.817 -17.475,4.242 -27.805,4.242c-10.045,0 -19.017,-1.341 -26.849,-4.024c-7.865,-2.7 -14.523,-6.557 -19.957,-11.589c-5.45,-5.031 -9.575,-11.118 -12.409,-18.296c-2.818,-7.144 -4.226,-15.21 -4.226,-24.182l-0,-10.129l23.763,-0c-0,31.846 13.08,47.761 39.275,47.761c12.947,-0 23.311,-3.069 31.092,-9.207c7.798,-6.121 11.689,-14.64 11.689,-25.524c-0,-13.5 -4.344,-23.361 -13.03,-29.549c-2.332,-1.526 -5.987,-3.32 -10.951,-5.383c-4.948,-2.063 -11.37,-4.344 -19.219,-6.809c-11.571,-3.589 -20.912,-6.859 -27.989,-9.827c-7.111,-2.968 -12.041,-5.484 -14.791,-7.547c-11.153,-8.686 -16.737,-23.36 -16.737,-44.021c0,-7.312 1.409,-14.053 4.243,-20.258c2.817,-6.205 6.809,-11.538 11.974,-16.016c5.165,-4.477 11.437,-7.949 18.799,-10.431c7.379,-2.482 15.68,-3.723 24.92,-3.723c41.204,0 61.798,18.732 61.798,56.214l-24.4,-0c-0,-24.518 -12.46,-36.794 -37.398,-36.794c-4.964,0 -9.609,0.771 -13.952,2.281c-4.344,1.509 -8.167,3.656 -11.471,6.406c-3.304,2.75 -5.886,6.071 -7.765,9.928c-1.844,3.857 -2.784,8.117 -2.784,12.812c0,11.018 3.858,19.772 11.589,26.245c2.465,2.063 5.869,4.126 10.213,6.205c4.343,2.063 9.827,4.059 16.451,5.987c11.706,3.589 21.449,7.06 29.247,10.431c7.781,3.388 13.668,6.658 17.659,9.828c11.84,8.955 17.776,22.539 17.776,40.717" style="fill:#58595b;fill-rule:nonzero;"/><path d="M2201.55,1059.8l-23.764,0l0,-77.511l-62.619,-122.355l26.228,0l48.164,100.034l48.767,-100.034l26.665,0l-63.441,122.355l-0,77.511Z" style="fill:#58595b;fill-rule:nonzero;"/><path d="M2541.13,869.644l-52.507,190.156l-27.905,-0l-52.071,-189.754l-0,189.754l-23.78,-0l-0,-199.866l42.378,-0l44.843,164.733l2.079,20.66l2.885,-20.66l45.883,-164.733l41.741,-0l-0,199.866l-23.546,-0l0,-190.156Z" style="fill:#58595b;fill-rule:nonzero;"/><path d="M2717.52,960.38c0,-56.23 -15.646,-84.337 -46.922,-84.337c-31.143,0 -46.705,28.107 -46.705,84.337c-0,32.249 3.991,54.637 11.99,67.164c3.304,5.803 7.916,10.062 13.836,12.829c5.936,2.751 13.013,4.126 21.298,4.126c16.384,-0 28.106,-5.652 35.133,-16.955c7.563,-12.259 11.37,-34.647 11.37,-67.164m25.005,0c-0,37.062 -6.205,64.146 -18.599,81.234c-11.437,15.563 -29.079,23.344 -52.909,23.344c-23.831,0 -41.473,-7.781 -52.927,-23.344c-12.795,-16.954 -19.201,-44.038 -19.201,-81.234c-0,-35.687 5.752,-62.033 17.239,-79.054c11.521,-17.022 29.683,-25.524 54.47,-25.524c24.668,-0 42.814,8.502 54.469,25.524c11.638,17.021 17.458,43.367 17.458,79.054" style="fill:#58595b;fill-rule:nonzero;"/><path d="M2803.41,885.349l-3.304,-14.674l-0,189.117l-23.361,-0l0,-199.867l38.437,0l69.462,185.813l0,-185.813l23.763,0l0,199.867l-39.275,-0l-65.722,-174.443Z" style="fill:#58595b;fill-rule:nonzero;"/><path d="M2947.77,859.932l105.836,0l0,20.04l-82.056,0l0,65.94l76.875,0l-0,19.839l-76.875,0l0,74.208l82.459,0l-0,19.839l-106.239,0l0,-199.866Z" style="fill:#58595b;fill-rule:nonzero;"/><path d="M3153.53,1059.8l-23.763,0l-0,-77.511l-62.62,-122.355l26.229,0l48.163,100.034l48.768,-100.034l26.664,0l-63.441,122.355l0,77.511Z" style="fill:#58595b;fill-rule:nonzero;"/><path d="M1716.03,423.041c0,1.979 4.008,6.004 12.075,12.091c8.049,5.417 12.074,12.158 12.074,20.208l-0,222.673l23.193,0l-12.074,31.327l-51.552,0l0,-248.08c0,-6.574 -4.679,-13.232 -14.053,-19.973c-9.207,-7.228 -13.819,-13.802 -13.819,-19.722c0,-10.682 5.434,-19.151 16.284,-25.407c9.526,-5.584 21.281,-8.049 35.251,-7.395l60.171,1.476l16.284,29.599l-71.256,-1.476c-8.385,-0.503 -12.578,1.073 -12.578,4.679" style="fill:#58595b;fill-rule:nonzero;"/><path d="M1947.21,647.686c0,42.747 -26.077,64.113 -78.182,64.113c-13.651,-0 -25.725,-1.594 -36.24,-4.797c-10.532,-3.22 -19.235,-7.898 -26.145,-14.07c-6.909,-6.154 -11.957,-13.768 -15.16,-22.807c-3.22,-9.039 -4.327,-19.386 -3.32,-31.075l43.887,-0c-0.335,1.643 -0.486,3.086 -0.486,4.327l-0,3.823c-0,21.852 12.644,32.786 37.967,32.786c24.166,-0 36.24,-9.023 36.24,-27.118c0,-18.581 -14.808,-30.253 -44.373,-35.016c-18.598,-2.465 -33.708,-7.814 -45.38,-16.032c-15.144,-10.179 -22.69,-23.176 -22.69,-38.957c-0,-8.552 1.694,-16.401 5.064,-23.545c3.354,-7.161 8.201,-13.282 14.54,-18.38c6.322,-5.081 14.02,-9.039 23.059,-11.84c9.039,-2.784 19.235,-4.192 30.572,-4.192c11.672,-0 22.287,1.358 31.813,4.075c9.525,2.717 17.642,6.691 24.283,11.957c6.674,5.266 11.789,11.756 15.412,19.487c3.622,7.731 5.332,16.518 5.198,26.379l-41.439,0c0,-19.889 -11.437,-30.085 -34.278,-30.572c-9.374,-0.335 -17.105,1.694 -23.176,6.038c-6.088,4.36 -9.123,10.229 -9.123,17.642c0,8.536 4.696,15.11 14.053,19.721c6.574,2.952 17.676,5.752 33.289,8.385c43.066,7.564 64.615,27.453 64.615,59.668" style="fill:#58595b;fill-rule:nonzero;"/><path d="M2133.99,603.304c-0,19.236 -1.309,35.603 -3.941,49.07c-2.65,13.483 -6.658,24.45 -12.092,32.919c-5.416,8.469 -12.359,14.59 -20.828,18.364c-8.469,3.79 -18.548,5.685 -30.203,5.685l-56.247,-0l-43.887,-190.374l39.963,-11.589l38.957,171.139l11.085,0c6.926,0 12.661,-1.325 17.273,-3.941c4.595,-2.633 8.351,-6.875 11.219,-12.711c2.885,-5.82 4.897,-13.484 6.037,-22.925c1.141,-9.459 1.745,-20.996 1.745,-34.647c-0,-12.175 -0.705,-22.439 -2.097,-30.824c-1.408,-8.385 -3.706,-15.21 -6.926,-20.476c-3.203,-5.249 -7.513,-9.039 -12.946,-11.337c-5.417,-2.297 -12.075,-3.454 -19.957,-3.454l-22.69,-0l17.257,-30.824l25.138,0c24.015,0 40.869,8.05 50.562,24.166c4.276,7.396 7.429,17.106 9.492,29.096c2.046,12.008 3.086,26.229 3.086,42.663" style="fill:#58595b;fill-rule:nonzero;"/><path d="M2323.25,647.686c-0,42.747 -26.061,64.113 -78.166,64.113c-13.65,-0 -25.725,-1.594 -36.24,-4.797c-10.531,-3.22 -19.252,-7.898 -26.161,-14.07c-6.893,-6.154 -11.957,-13.768 -15.16,-22.807c-3.203,-9.039 -4.31,-19.386 -3.321,-31.075l43.888,-0c-0.336,1.643 -0.487,3.086 -0.487,4.327l0,3.823c0,21.852 12.645,32.786 37.968,32.786c24.182,-0 36.24,-9.023 36.24,-27.118c-0,-18.581 -14.791,-30.253 -44.374,-35.016c-18.581,-2.465 -33.708,-7.814 -45.363,-16.032c-15.143,-10.179 -22.707,-23.176 -22.707,-38.957c0,-8.552 1.694,-16.401 5.065,-23.545c3.371,-7.161 8.217,-13.282 14.54,-18.38c6.339,-5.081 14.019,-9.039 23.059,-11.84c9.039,-2.784 19.252,-4.192 30.571,-4.192c11.689,-0 22.288,1.358 31.83,4.075c9.525,2.717 17.625,6.691 24.283,11.957c6.658,5.266 11.79,11.756 15.412,19.487c3.622,7.731 5.333,16.518 5.182,26.379l-41.422,0c-0,-19.889 -11.438,-30.085 -34.278,-30.572c-9.392,-0.335 -17.123,1.694 -23.193,6.038c-6.071,4.36 -9.123,10.229 -9.123,17.642c-0,8.536 4.695,15.11 14.053,19.721c6.591,2.952 17.676,5.752 33.289,8.385c43.082,7.564 64.615,27.453 64.615,59.668" style="fill:#58595b;fill-rule:nonzero;"/><path d="M2231.88,434.138l40.433,-0l-0,20.224l83.112,0l0,32.803l-123.545,-0l-0,-53.027Z" style="fill:#58595b;fill-rule:nonzero;"/><path d="M2514.58,675.428c-3.79,7.814 -9.123,14.422 -16.015,19.855c-6.909,5.417 -15.211,9.526 -24.904,12.326c-9.71,2.784 -20.476,4.193 -32.316,4.193c-11.655,-0 -22.304,-1.409 -31.93,-4.193c-9.626,-2.8 -17.843,-6.909 -24.652,-12.326c-6.826,-5.433 -12.142,-12.041 -15.898,-19.855c-3.79,-7.799 -5.685,-16.72 -5.685,-26.749l-0,-141.305l40.449,0l0,139.813c0,22.203 12.578,33.305 37.716,33.305c25.642,0 38.471,-11.102 38.471,-33.305l-0,-139.813l40.449,0l0,141.305c0,10.029 -1.895,18.95 -5.685,26.749" style="fill:#58595b;fill-rule:nonzero;"/><path d="M2712.48,602.313c-0.352,17.441 -2.449,32.92 -6.289,46.487c-3.857,13.567 -9.492,25.038 -16.904,34.395c-13.97,17.425 -33.54,26.145 -58.679,26.145l-36.743,0l-16.77,-78.165c-3.455,-15.798 -12.175,-24.418 -26.145,-25.893l32.316,-22.69c16.418,-0.504 26.547,7.563 30.337,24.165l15.026,70.284c26.464,-2.465 40.45,-26.229 41.926,-71.273c1.475,-45.866 -13.484,-69.043 -44.894,-69.529c-13.148,-0.822 -23.579,3.186 -31.31,12.075c-5.752,6.255 -8.636,12.812 -8.636,19.738l-45.363,-0c1.978,-17.592 9.86,-32.316 23.662,-44.156c16.116,-12.661 36.341,-18.984 60.674,-18.984c59.501,0 88.781,32.467 87.792,97.401" style="fill:#58595b;fill-rule:nonzero;"/><path d="M2831.69,572.483c0,-24.166 -9.944,-36.257 -29.834,-36.257c-9.374,-0 -16.686,2.834 -21.952,8.519c-5.249,5.668 -7.898,13.03 -7.898,22.069l-41.909,0c0,-17.592 6.574,-32.232 19.722,-43.904c13.483,-11.99 30.656,-17.994 51.534,-17.994c22.707,-0 40.031,5.467 52.038,16.401c12.007,10.934 17.994,26.664 17.994,47.225l0,140.801l-39.695,0l0,-136.86Zm-129.465,-115.647c0,-6.742 -3.354,-10.129 -10.095,-10.129c-6.759,-0 -10.113,3.387 -10.113,10.129c0,6.725 3.354,10.112 10.113,10.112c6.741,0 10.095,-3.387 10.095,-10.112m21.701,-0c-0,4.26 -0.822,8.217 -2.449,11.823c-1.643,3.622 -3.924,6.825 -6.792,9.626c-2.867,2.801 -6.255,4.964 -10.112,6.523c-3.857,1.577 -8.016,2.348 -12.443,2.348c-4.444,0 -8.587,-0.771 -12.444,-2.348c-3.874,-1.559 -7.244,-3.722 -10.129,-6.523c-2.868,-2.801 -5.132,-6.004 -6.775,-9.626c-1.644,-3.606 -2.465,-7.563 -2.465,-11.823c-0,-4.125 0.821,-8.033 2.465,-11.722c1.643,-3.69 3.907,-6.943 6.775,-9.744c2.885,-2.784 6.255,-4.964 10.129,-6.523c3.857,-1.577 8,-2.348 12.444,-2.348c4.427,-0 8.586,0.771 12.443,2.348c3.857,1.559 7.245,3.739 10.112,6.523c2.868,2.801 5.149,6.054 6.792,9.744c1.627,3.689 2.449,7.597 2.449,11.722" style="fill:#58595b;fill-rule:nonzero;"/><path d="M3028.59,688.129c-14.138,15.781 -32.3,23.68 -54.487,23.68c-41.438,-0 -62.15,-17.844 -62.15,-53.514l0,-150.914l40.45,0l-0,141.288c-0,21.868 11.085,32.802 33.272,32.802c5.45,0 10.733,-0.939 15.931,-2.834c5.166,-1.895 9.727,-4.511 13.668,-7.898c3.941,-3.354 7.161,-7.346 9.626,-11.957c2.465,-4.595 3.69,-9.61 3.69,-15.026l-0,-136.375l40.449,0l-0,167.181c-0,5.266 0.369,10.817 1.124,16.653c0.721,5.836 1.995,11.873 3.806,18.128l-45.379,0l-0,-21.214Z" style="fill:#58595b;fill-rule:nonzero;"/><path d="M3193.2,572.483c-0,-24.166 -9.962,-36.257 -29.834,-36.257c-9.375,-0 -16.687,2.834 -21.952,8.519c-5.266,5.668 -7.899,13.03 -7.899,22.069l-41.925,0c-0,-17.592 6.59,-32.232 19.738,-43.904c13.483,-11.99 30.656,-17.994 51.535,-17.994c22.69,-0 40.03,5.467 52.037,16.401c11.991,10.934 17.995,26.664 17.995,47.225l-0,140.801l-39.695,0l-0,-136.86Zm-129.465,-115.647c-0,-6.742 -3.371,-10.129 -10.113,-10.129c-6.741,-0 -10.112,3.387 -10.112,10.129c-0,6.725 3.371,10.112 10.112,10.112c6.742,0 10.113,-3.387 10.113,-10.112m21.7,-0c0,4.26 -0.822,8.217 -2.465,11.823c-1.644,3.622 -3.908,6.825 -6.792,9.626c-2.851,2.801 -6.238,4.964 -10.096,6.523c-3.873,1.577 -8.032,2.348 -12.46,2.348c-4.444,0 -8.586,-0.771 -12.443,-2.348c-3.874,-1.559 -7.245,-3.722 -10.113,-6.523c-2.884,-2.801 -5.148,-6.004 -6.775,-9.626c-1.66,-3.606 -2.482,-7.563 -2.482,-11.823c0,-4.125 0.822,-8.033 2.482,-11.722c1.627,-3.69 3.891,-6.943 6.775,-9.744c2.868,-2.784 6.239,-4.964 10.113,-6.523c3.857,-1.577 7.999,-2.348 12.443,-2.348c4.428,-0 8.587,0.771 12.46,2.348c3.858,1.559 7.245,3.739 10.096,6.523c2.884,2.801 5.148,6.054 6.792,9.744c1.643,3.689 2.465,7.597 2.465,11.722" style="fill:#58595b;fill-rule:nonzero;"/><path d="M3406.85,693.189c-13.634,12.41 -32.886,18.615 -57.689,18.615c-25.323,-0 -44.726,-6.205 -58.209,-18.615c-13.483,-12.41 -20.208,-30.455 -20.208,-54.134l-0,-55.979l85.561,0l-0,33.792l-45.615,0l0,20.711c0,28.61 12.812,42.915 38.471,42.915c25.641,-0 38.47,-14.305 38.47,-42.915l0,-63.626c0,-25.138 -12.829,-37.716 -38.47,-37.716c-23.696,0 -36.509,10.599 -38.471,31.813l-39.946,0c-0,-9.542 1.878,-18.179 5.668,-25.893c3.773,-7.731 9.089,-14.355 15.898,-19.856c6.826,-5.517 15.043,-9.777 24.669,-12.829c9.609,-3.035 20.342,-4.561 32.182,-4.561c11.99,-0 22.807,1.559 32.416,4.679c9.61,3.136 17.793,7.613 24.535,13.449c6.742,5.836 11.957,12.913 15.663,21.198c3.69,8.301 5.551,17.726 5.551,28.241l0,66.577c0,23.679 -6.842,41.724 -20.476,54.134" style="fill:#58595b;fill-rule:nonzero;"/><path d="M3291.57,454.362l98.39,0l-0,-25.406l40.432,-0l0,58.209l-138.822,-0l-0,-32.803Z" style="fill:#58595b;fill-rule:nonzero;"/><path d="M3617.18,679.253c-3.455,7.06 -8.335,13.03 -14.674,17.877c-6.322,4.846 -14.02,8.502 -23.042,10.967c-9.056,2.482 -19.168,3.707 -30.354,3.707c-11.169,-0 -21.231,-1.275 -30.186,-3.824c-8.972,-2.549 -16.653,-6.239 -23.059,-11.102c-6.406,-4.846 -11.337,-10.8 -14.791,-17.877c-3.455,-7.06 -5.182,-15.126 -5.182,-24.165l-0,-79.39c-0,-6.742 2.867,-13.483 8.636,-20.225c4.092,-5.098 9.526,-8.787 16.267,-11.102c-3.79,0.99 -7.731,1.476 -11.839,1.476c-16.435,0 -29.013,-5.819 -37.733,-17.508l27.134,-26.379c5.735,12.175 13.718,18.246 23.914,18.246c9.375,-0 17.441,-5.585 24.166,-16.771l27.385,24.904c-4.628,2.968 -8.972,6.339 -13.08,10.112c-4.109,3.791 -8.05,7.815 -11.84,12.092c-8.385,10.347 -12.578,19.805 -12.578,28.341l0,74.728c0,18.749 10.935,28.106 32.786,28.106c21.868,0 32.802,-9.357 32.802,-28.106l0,-49.07c0,-16.77 -11.588,-25.155 -34.764,-25.155l-8.62,0l0,-31.309l8.62,-0c23.176,-0 34.764,-10.113 34.764,-30.338l0,-10.112l40.45,0l-0,17.508c-0,20.392 -9.777,33.054 -29.331,37.984c19.554,5.752 29.331,18.732 29.331,38.957l-0,53.011c-0,9.206 -1.728,17.357 -5.182,24.417" style="fill:#58595b;fill-rule:nonzero;"/><path d="M3488.59,454.362l98.391,0l-0,-25.406l40.432,-0l0,58.209l-138.823,-0l0,-32.803Z" style="fill:#58595b;fill-rule:nonzero;"/><rect x="3592.02" y="375.954" width="40.449" height="40.433" style="fill:#58595b;"/><path d="M3767.97,711.802c-22.539,-0 -40.701,-7.899 -54.503,-23.68l-0,21.215l-48.08,-0c5.098,-11.84 7.647,-23.093 7.647,-33.792l0,-168.171l40.433,0l-0,136.375c-0,5.249 1.274,10.146 3.84,14.657c2.533,4.528 5.82,8.519 9.844,11.974c4.042,3.454 8.587,6.154 13.702,8.133c5.098,1.979 10.263,2.952 15.529,2.952c22.186,-0 33.288,-10.918 33.288,-32.786l0,-141.305l40.433,0l-0,150.914c-0,35.687 -20.711,53.514 -62.133,53.514" style="fill:#58595b;fill-rule:nonzero;"/><path d="M3744.17,434.138l40.433,-0l-0,20.224l83.096,0l-0,32.803l-123.529,-0l0,-53.027Z" style="fill:#58595b;fill-rule:nonzero;"/><path d="M3992.1,688.129c-14.138,15.781 -32.3,23.68 -54.487,23.68c-41.438,-0 -62.15,-17.844 -62.15,-53.514l0,-150.914l40.45,0l-0,141.288c-0,21.868 11.085,32.802 33.272,32.802c5.45,0 10.733,-0.939 15.931,-2.834c5.166,-1.895 9.727,-4.511 13.668,-7.898c3.941,-3.354 7.161,-7.346 9.626,-11.957c2.465,-4.595 3.69,-9.61 3.69,-15.026l-0,-136.375l40.449,0l0,167.181c0,5.266 0.369,10.817 1.124,16.653c0.721,5.836 1.995,11.873 3.806,18.128l-45.379,0l-0,-21.214Z" style="fill:#58595b;fill-rule:nonzero;"/><path d="M4189.49,688.129c-14.137,15.781 -32.299,23.68 -54.486,23.68c-41.439,-0 -62.15,-17.844 -62.15,-53.514l-0,-150.914l40.449,0l0,141.288c0,21.868 11.085,32.802 33.272,32.802c5.451,0 10.733,-0.939 15.932,-2.834c5.165,-1.895 9.727,-4.511 13.668,-7.898c3.94,-3.354 7.16,-7.346 9.626,-11.957c2.465,-4.595 3.689,-9.61 3.689,-15.026l-0,-136.375l40.449,0l0,167.181c0,5.266 0.369,10.817 1.124,16.653c0.721,5.836 1.996,11.873 3.807,18.128l-45.38,0l-0,-21.214Z" style="fill:#58595b;fill-rule:nonzero;"/><path d="M4095.91,454.362l98.39,0l0,-25.406l40.433,-0l0,58.209l-138.823,-0l0,-32.803Z" style="fill:#58595b;fill-rule:nonzero;"/><rect x="4199.35" y="375.954" width="40.433" height="40.433" style="fill:#58595b;"/><path d="M1432.32,1432.32l-1180.77,0c-138.354,0 -251.552,-113.198 -251.552,-251.551l-0,-929.214c-0,-138.354 113.198,-251.552 251.552,-251.552l929.214,-0c138.353,-0 251.551,113.198 251.551,251.552l0,1180.77Z" style="fill:#ed1c24;fill-rule:nonzero;"/><path d="M739.536,1011.93l-3.723,16.535l0.453,0c10.733,-13.382 24.786,-20.09 42.16,-20.09c23.512,-0 35.201,10.816 35.201,32.4c-0,1.241 -0.151,2.867 -0.47,4.796c-0.335,1.945 -0.637,3.924 -1.057,5.97c-0.368,2.012 -0.771,3.891 -1.14,5.668c-0.419,1.811 -0.687,3.287 -0.822,4.327l-14.875,70.652l-33.104,0l14.657,-70.585c0.269,-1.878 0.755,-4.343 1.291,-7.463c0.504,-3.102 0.822,-5.517 0.822,-7.194c0,-3.589 -1.677,-6.557 -4.997,-8.888c-3.371,-2.331 -6.977,-3.488 -10.867,-3.488c-4.981,-0 -9.341,0.989 -13.148,2.918c-3.773,1.962 -7.127,4.477 -9.811,7.546c-2.7,3.103 -4.947,6.691 -6.724,10.716c-1.812,4.059 -3.187,8.151 -4.092,12.36l-13.5,64.078l-32.853,0l24.937,-120.258l31.662,-0Z" style="fill:#fcb912;"/><path d="M399.63,1011.93l-3.757,16.77l0.487,0c4.964,-6.976 11.034,-12.125 18.145,-15.395c7.144,-3.287 15.16,-4.93 23.998,-4.93c7.479,-0 13.852,1.643 19.118,4.93c5.249,3.27 8.603,8.637 10.012,16.116c2.012,-3.102 4.561,-5.953 7.714,-8.536c3.086,-2.549 6.406,-4.779 9.995,-6.658c3.538,-1.861 7.345,-3.303 11.286,-4.343c3.975,-1.006 7.865,-1.509 11.756,-1.509c4.645,-0 9.223,0.637 13.634,1.861c4.427,1.275 8.368,3.119 11.756,5.618c3.421,2.482 6.138,5.685 8.167,9.559c2.012,3.857 3.035,8.402 3.035,13.5c0,3.757 -0.402,7.513 -1.174,11.32c-0.771,3.807 -1.559,7.496 -2.331,11.085l-14.925,70.87l-33.037,0l15.797,-76.237c0.621,-3.052 0.923,-5.936 0.923,-8.569c-0,-3.589 -1.325,-6.641 -4.042,-9.106c-2.734,-2.482 -6.188,-3.706 -10.381,-3.706c-4.343,-0 -8.267,1.056 -11.722,3.136c-3.522,2.129 -6.574,4.729 -9.14,7.932c-2.532,3.169 -4.679,6.691 -6.406,10.615c-1.694,3.841 -2.935,7.648 -3.689,11.387l-13.5,64.548l-33.322,0l15.831,-76.237c0.62,-3.052 0.955,-5.936 0.955,-8.569c0,-3.589 -1.375,-6.641 -4.091,-9.106c-2.751,-2.482 -6.172,-3.706 -10.381,-3.706c-4.36,-0 -8.268,1.056 -11.739,3.136c-3.522,2.129 -6.524,4.729 -9.106,7.932c-2.549,3.169 -4.713,6.691 -6.407,10.615c-1.71,3.841 -2.951,7.648 -3.722,11.387l-13.517,64.548l-32.836,0l24.937,-120.258l31.679,-0Z" style="fill:#fcb912;"/><path d="M589.162,1093.66c1.04,3.27 2.499,6.121 4.528,8.62c2.012,2.482 4.461,4.477 7.379,5.936c2.935,1.493 6.289,2.248 10.129,2.248c6.155,-0 11.404,-1.694 15.797,-5.048c4.394,-3.337 8,-7.547 10.834,-12.578c2.834,-5.064 4.964,-10.548 6.322,-16.434c1.392,-5.92 2.113,-11.454 2.113,-16.569c0,-8.117 -1.828,-14.54 -5.433,-19.37c-3.639,-4.83 -9.794,-7.228 -18.548,-7.228c-6.02,0 -11.186,1.661 -15.579,4.998c-4.377,3.371 -7.966,7.513 -10.716,12.46c-2.768,5.031 -4.847,10.414 -6.239,16.234c-1.392,5.852 -2.096,11.353 -2.096,16.451c-0,3.589 0.503,6.993 1.509,10.28m-30.018,-39.208c3.186,-9.107 7.781,-17.056 13.734,-23.915c5.987,-6.808 13.215,-12.275 21.751,-16.183c8.503,-4.008 18.162,-5.97 28.828,-5.97c8.234,0 15.814,1.073 22.673,3.153c6.926,2.096 12.846,5.249 17.81,9.458c4.964,4.193 8.788,9.475 11.521,15.848c2.717,6.373 4.075,13.936 4.075,22.64c0,10.582 -1.593,20.509 -4.779,29.733c-3.187,9.257 -7.798,17.29 -13.869,24.149c-6.021,6.825 -13.349,12.192 -21.935,16.082c-8.637,3.874 -18.431,5.803 -29.415,5.803c-16.754,-0 -30.17,-4.276 -40.114,-12.896c-10.012,-8.67 -15.01,-21.6 -15.01,-38.857c0,-10.263 1.56,-19.939 4.73,-29.045" style="fill:#fcb912;"/><path d="M915.327,1049.73c-0.536,-3.035 -1.593,-5.853 -3.153,-8.318c-1.542,-2.499 -3.79,-4.461 -6.775,-5.97c-2.951,-1.476 -6.808,-2.197 -11.621,-2.197c-4.679,0 -8.754,0.721 -12.343,2.13c-3.589,1.392 -6.691,3.22 -9.324,5.601c-2.617,2.298 -4.83,5.065 -6.641,8.15c-1.795,3.17 -3.287,6.407 -4.528,9.828l55.207,-0c-0,-3.103 -0.268,-6.189 -0.822,-9.224m-58.36,32.182l0,4.88c0,7.06 2.113,12.729 6.44,17.089c4.377,4.394 11.035,6.59 20.057,6.59c3.304,0 6.188,-0.553 8.754,-1.526c2.549,-1.023 4.813,-2.297 6.708,-3.806c1.996,-1.56 3.689,-3.338 5.148,-5.333c1.493,-2.013 2.851,-3.941 4.109,-5.803l33.071,0c-2.633,6.859 -5.752,12.846 -9.324,17.994c-3.589,5.099 -7.866,9.442 -12.83,12.897c-4.947,3.521 -10.766,6.154 -17.34,7.848c-6.591,1.694 -14.238,2.516 -22.958,2.516c-8.016,-0 -15.412,-1.04 -21.952,-3.237c-6.591,-2.197 -12.226,-5.467 -16.854,-9.928c-4.612,-4.427 -8.184,-9.911 -10.767,-16.435c-2.565,-6.523 -3.823,-14.154 -3.823,-22.874c-0,-9.643 1.526,-18.917 4.645,-27.855c3.086,-8.922 7.446,-16.871 13.064,-23.814c5.652,-6.892 12.578,-12.426 20.812,-16.552c8.217,-4.092 17.441,-6.188 27.687,-6.188c8.419,0 16.016,1.124 22.959,3.27c6.858,2.18 12.812,5.45 17.692,9.895c4.897,4.427 8.687,9.944 11.42,16.518c2.734,6.591 4.059,14.238 4.059,22.925c-0,5.903 -0.621,12.158 -1.878,18.816l-88.698,-0c-0.15,0.822 -0.201,1.509 -0.201,2.113" style="fill:#fcb912;"/><path d="M1079.59,956.974l-118.431,0l-15.177,29.348l133.608,-0c47.308,-0 85.812,38.504 85.812,85.863c0,47.275 -38.504,85.779 -85.812,85.779l-38.236,-0l-17.559,29.364l55.795,0c63.508,0 115.143,-51.669 115.143,-115.143c0,-63.526 -51.635,-115.211 -115.143,-115.211" style="fill:#fcb912;"/><path d="M1046.98,1011.24l-41.691,86.199l-10.934,-86.199l-34.027,0l22.003,123.009c-0,0 -9.073,23.696 -25.591,23.696c-5.115,0 -41.657,0.051 -46.303,0.101l-10.414,29.364c6.172,0 44.558,-0.1 57.756,-0.1c20.426,-0 34.01,-9.761 45.045,-28.124l79.104,-147.946l-34.948,0Z" style="fill:#fcb912;"/><path d="M694.287,877.62c-4.83,0.519 -9.609,0.972 -14.422,1.257c-3.136,0.319 -6.138,0.822 -9.056,1.543c-2.985,0.688 -5.618,1.728 -7.832,3.153c-2.264,1.375 -4.058,3.27 -5.483,5.719c-1.376,2.364 -2.097,5.45 -2.097,9.156c0,4.511 1.828,7.882 5.501,10.146c3.656,2.23 7.882,3.371 12.678,3.371c5.115,-0 9.391,-0.805 12.913,-2.432c3.488,-1.66 6.44,-3.723 8.855,-6.305c2.364,-2.566 4.293,-5.434 5.668,-8.721c1.425,-3.27 2.599,-6.54 3.538,-9.81l3.254,-11.656c-4.193,2.516 -8.687,4.025 -13.517,4.579m-49.27,-49.908c3.572,-5.065 7.898,-9.157 13.047,-12.259c5.115,-3.119 10.833,-5.333 17.239,-6.658c6.34,-1.325 12.947,-1.996 19.789,-1.996c5.434,0 11.102,0.403 16.988,1.191c5.87,0.772 11.32,2.298 16.217,4.545c4.981,2.247 9.039,5.417 12.225,9.576c3.187,4.091 4.696,9.609 4.495,16.434c-0,5.752 -0.805,12.511 -2.533,20.292l-10.682,48.533c-0.621,2.163 -1.04,4.846 -1.275,8.049c-0.251,3.153 -0.352,5.92 -0.352,8.285c0,2.012 0.419,4.327 1.208,6.993l-33.155,0.369l0,-12.158c-4.477,5.114 -9.995,8.837 -16.518,11.219c-6.524,2.381 -13.282,3.555 -20.259,3.555c-6.506,0 -12.192,-0.822 -17.088,-2.549c-4.914,-1.694 -8.989,-3.991 -12.226,-6.876c-3.253,-2.884 -5.651,-6.205 -7.228,-10.012c-1.559,-3.806 -2.314,-7.814 -2.314,-12.024c-0,-11.672 3.975,-20.996 11.974,-27.989c8.016,-6.993 19.319,-11.37 33.926,-13.047c7.798,-0.939 14.556,-1.66 20.258,-2.08c5.819,-0.469 10.565,-1.224 14.355,-2.247c3.807,-0.989 6.641,-2.499 8.519,-4.427c1.862,-1.945 2.784,-4.863 2.784,-8.754c0,-3.086 -0.687,-5.601 -2.062,-7.463c-1.459,-1.878 -3.17,-3.32 -5.249,-4.394c-2.114,-1.106 -4.344,-1.844 -6.759,-2.264c-2.398,-0.368 -4.712,-0.519 -6.892,-0.519c-5.903,-0 -11.186,1.392 -15.831,4.259c-4.662,2.901 -7.513,7.396 -8.654,13.433l-30.941,0c1.074,-7.63 3.405,-13.969 6.994,-19.017" style="fill:#fff;fill-rule:nonzero;"/><path d="M833.098,833.328c-2.884,-2.868 -7.58,-4.293 -14.087,-4.293c-5.919,-0 -10.749,0.838 -14.556,2.599c-3.84,1.828 -5.702,4.897 -5.702,9.241c0,2.666 1.107,4.913 3.304,6.775c2.247,1.895 6.171,3.639 11.739,5.383l16.451,5.35c4.461,1.408 8.603,3.018 12.36,4.896c3.824,1.862 7.127,4.159 9.995,6.859c2.851,2.734 5.065,5.971 6.691,9.694c1.644,3.739 2.432,8.083 2.432,13.097c-0,7.446 -1.644,13.768 -4.981,18.967c-3.337,5.199 -7.731,9.458 -13.148,12.712c-5.45,3.27 -11.571,5.584 -18.38,6.976c-6.859,1.409 -13.751,2.096 -20.727,2.096c-5.887,0 -11.907,-0.603 -17.944,-1.828c-6.038,-1.257 -11.505,-3.303 -16.418,-6.205c-4.897,-2.85 -8.889,-6.657 -11.974,-11.37c-3.136,-4.746 -4.646,-10.699 -4.646,-17.826l0,-4.897l30.606,-0l-0,3.991c-0,2.801 0.671,5.249 2.079,7.262c1.376,2.062 3.17,3.706 5.417,5.064c2.231,1.308 4.763,2.348 7.614,3.019c2.834,0.721 5.651,1.073 8.418,1.073c2.499,0 4.931,-0.235 7.413,-0.704c2.465,-0.47 4.695,-1.308 6.725,-2.449c1.962,-1.157 3.588,-2.666 4.829,-4.444c1.241,-1.811 1.862,-4.075 1.862,-6.876c-0,-4.226 -1.09,-7.194 -3.254,-8.888c-2.163,-1.727 -4.997,-3.186 -8.586,-4.461l-25.205,-8.183c-4.176,-1.392 -7.866,-2.851 -11.002,-4.428c-3.169,-1.526 -5.903,-3.505 -8.133,-5.819c-2.281,-2.364 -3.907,-5.165 -5.098,-8.435c-1.141,-3.254 -1.694,-7.312 -1.694,-12.159c0,-7.16 1.66,-13.147 4.981,-17.977c3.387,-4.83 7.731,-8.754 13.047,-11.789c5.282,-3.036 11.135,-5.233 17.424,-6.558c6.272,-1.324 12.293,-1.995 18.061,-1.995c6.507,-0 12.796,0.57 18.85,1.66c6.088,1.09 11.404,3.086 15.965,5.97c4.612,2.868 8.218,6.826 10.867,11.823c2.583,4.981 3.824,11.353 3.69,19.152l-30.74,-0c-0.151,-5.149 -1.643,-9.19 -4.545,-12.075" style="fill:#fff;fill-rule:nonzero;"/><path d="M965.114,810.358l-41.69,86.198l-10.951,-86.198l-33.993,0l21.985,122.992c0,-0 -6.624,23.478 -23.092,23.478c-5.098,0 -9.592,0.067 -14.154,0.101l-10.498,29.448c6.155,-0.05 12.46,-0.151 25.658,-0.151c20.426,0 34.044,-9.71 45.045,-28.14l76.656,-147.728l-34.966,0Z" style="fill:#fff;fill-rule:nonzero;"/><path d="M800.279,1207.82l71.659,-35.066l-47.56,-28.811l-6.574,14.053l-465.052,0c-47.325,0 -85.812,-38.504 -85.812,-85.812c-0,-47.359 38.487,-85.813 85.812,-85.813l457.908,0l10.045,-29.398l-467.953,0c-63.525,0 -115.177,51.685 -115.177,115.211c0,63.474 51.652,115.143 115.177,115.143l454.638,0l-7.111,20.493Z" style="fill:#fff;fill-rule:nonzero;"/><path d="M521.902,878.25l88.748,0c1.224,-6.674 1.861,-12.963 1.861,-18.866c0,-8.654 -1.358,-16.284 -4.058,-22.891c-2.734,-6.608 -6.541,-12.108 -11.437,-16.536c-4.897,-4.41 -10.784,-7.714 -17.71,-9.894c-6.926,-2.163 -14.539,-3.27 -22.924,-3.27c-10.23,-0 -19.504,2.079 -27.705,6.221c-8.234,4.109 -15.16,9.61 -20.811,16.553c-4.528,5.567 -8.201,11.906 -11.102,18.866l33.037,-0c0.134,-0.285 0.235,-0.604 0.419,-0.872c1.811,-3.136 4.025,-5.853 6.658,-8.184c2.616,-2.331 5.685,-4.209 9.307,-5.635c3.572,-1.392 7.681,-2.096 12.36,-2.096c4.796,0 8.67,0.738 11.638,2.23c2.935,1.459 5.182,3.489 6.759,5.954c1.526,2.515 2.599,5.266 3.136,8.318c0.52,3.052 0.805,6.121 0.805,9.257l-136.073,-0l5.618,-17.676l-68.774,26.396l51.534,27.772l4.998,-15.647l52.071,0c-0.017,1.023 -0.101,1.996 -0.101,2.968c0,8.738 1.275,16.335 3.841,22.892c2.532,6.506 6.121,11.957 10.766,16.418c4.629,4.427 10.23,7.731 16.821,9.894c6.59,2.18 13.902,3.253 21.968,3.253c8.704,0 16.368,-0.821 22.976,-2.549c6.557,-1.694 12.342,-4.293 17.323,-7.798c4.964,-3.488 9.24,-7.831 12.846,-12.93c3.555,-5.148 6.624,-11.118 9.324,-17.944l-33.121,0c-1.224,1.828 -2.582,3.774 -4.058,5.753c-1.493,2.012 -3.22,3.79 -5.132,5.316c-1.945,1.559 -4.192,2.8 -6.725,3.84c-2.582,1.023 -5.5,1.509 -8.77,1.509c-9.006,0 -15.68,-2.18 -20.024,-6.557c-4.36,-4.343 -6.54,-10.045 -6.54,-17.072l-0,-4.897c-0,-0.603 0.1,-1.291 0.251,-2.096" style="fill:#fff;fill-rule:nonzero;"/><path d="M800.95,239.921c-41.69,-15.68 -84.974,-18.983 -125.91,-11.839c47.107,0.184 91.011,17.558 125.809,44.306c39.226,25.91 70.133,65.001 85.176,113.467c34.664,111.42 -27.503,229.901 -138.974,264.565c-111.421,34.681 -229.901,-27.57 -264.565,-138.991c-3.103,-9.877 -5.367,-19.805 -6.96,-29.733c6.172,91.498 64.414,175.432 155.862,209.76c124.668,46.839 263.743,-16.267 310.548,-140.969c46.806,-124.703 -16.283,-263.743 -140.986,-310.566" style="fill:#fcb912;"/><path d="M475.112,458.35c0.235,1.879 0.386,3.74 0.654,5.602l0,-0.621c-0.285,-58.863 53.245,-109.509 106.507,-131.863l-17.022,-18.95l122.389,6.506l-65.136,88.06l-14.975,-45.749l-19.051,8.956c-29.079,15.78 -48.751,46.637 -48.566,81.972c0.285,63.693 52.188,114.825 115.881,114.271c79.625,-0.738 143.904,-65.873 143.502,-145.497c-0.487,-99.531 -69.311,-169.613 -168.305,-158.796c-49.874,5.417 -89.15,33.775 -118.196,73.788c-8.837,13.903 -16.401,28.862 -22.421,44.894c-9.576,25.524 -14.49,51.618 -15.261,77.427" style="fill:#fff;fill-rule:nonzero;"/></g></svg>